<svg xmlns="http://www.w3.org/2000/svg" xmlns:vectornator="http://vectornator.io" xmlns:xlink="http://www.w3.org/1999/xlink" height="100%" stroke-miterlimit="10" style="fill-rule:nonzero;clip-rule:evenodd;stroke-linecap:round;stroke-linejoin:round" width="100%" version="1.1" viewBox="0 0 1024 1024" xml:space="preserve"><g id="Layer-1" vectornator:layerName="Layer 1"><path fill="#91d04b" fill-rule="nonzero" stroke="none" d="M41.1094 241.493L782.507 41.1094L982.891 782.507L241.493 982.891L41.1094 241.493Z" opacity="1" vectornator:layerName="Rectangle 3"/><path fill="#fff" fill-rule="nonzero" stroke="none" d="M52.4058 246.278L773.773 48.4573L971.594 769.825L250.227 967.646L52.4058 246.278Z" opacity="1" vectornator:layerName="Rectangle 2"/><path fill="#91d04b" fill-rule="nonzero" stroke="none" d="M140.942 612.192L511.641 512L611.833 882.699L241.134 982.891L140.942 612.192Z" opacity="1" vectornator:layerName="Rectangle 4"/><path fill="#91d04b" fill-rule="nonzero" stroke="none" d="M411.523 141.301L782.221 41.1094L882.413 411.808L511.715 512L411.523 141.301Z" opacity="1" vectornator:layerName="Rectangle 1"/><path fill="#80c0ff" fill-rule="nonzero" stroke="none" d="M909.773 512L309.413 168.989L422.776 137.203L882.996 412.843" opacity="1" vectornator:layerName="Curve 10"/><path fill="#f9acb0" fill-rule="nonzero" stroke="none" d="M220.828 192.921L936.434 610.515L909.773 512L309.413 168.985" opacity="1" vectornator:layerName="Curve 11"/><path fill="#dfb0b2" fill-rule="nonzero" stroke="#d5acae" stroke-linecap="butt" stroke-linejoin="round" stroke-width="10" d="M52.4058 859.156C52.4058 859.156 80.9285 663.787 188.114 448.931C208.544 407.978 232.536 363.205 259.537 320.217C293.089 266.799 331.286 216.138 373.066 178.985C418.293 138.766 463.026 106.666 512 99.7643C557.416 93.3645 611.833 95.5472 646.968 118.456C731.284 173.432 782.428 270.786 842.642 463.272C911.5 683.387 919.596 858.192 919.596 858.192C919.596 858.192 828.63 861.913 611.833 862.154C395.035 862.395 52.4058 859.156 52.4058 859.156Z" opacity="1" vectornator:layerName="Curve 4"/><path fill="#000" fill-rule="nonzero" stroke="#000" stroke-linecap="butt" stroke-linejoin="round" stroke-width="10" d="M373.066 178.985C396.049 158.547 418.904 140.206 442.252 126.203C464.851 112.649 487.913 103.159 512 99.7643C557.416 93.3645 611.833 95.5472 646.968 118.456C665.016 130.224 681.544 143.933 696.966 160.101C711.551 175.391 683.541 143.326 646.968 151.864C627.962 156.301 611.918 158.389 589.53 173.703C576.348 182.72 567.463 203.352 552.863 203.887C532.815 204.622 522.748 197.408 512 188.359C496.384 175.21 473.33 163.388 453.72 160.089C420.749 154.542 362.021 188.807 373.066 178.985Z" opacity="1" vectornator:layerName="Curve 2"/><path fill="#000" fill-rule="nonzero" stroke="none" d="M268.768 241.509L504.689 290.511L455.327 372.149L278.385 332.488L268.768 241.509Z" opacity="1" vectornator:layerName="Curve 5"/><path fill="#000" fill-rule="nonzero" stroke="none" d="M546.136 292.952L767.841 220.524L781.631 312.195L585.669 372.149L546.136 292.952Z" opacity="1" vectornator:layerName="Curve 6"/><path fill="#000" fill-rule="nonzero" stroke="none" d="M459.821 320.208L571.14 312.195L575.688 336.954L433.69 337.962L459.821 320.208Z" opacity="1" vectornator:layerName="Curve 7"/><path fill="#a37173" fill-rule="nonzero" stroke="none" d="M575.688 814.587C575.688 814.587 672.15 804.842 725.923 724.394C749.24 689.509 789.837 628.801 801.443 570.204C816.601 493.669 799.067 421.372 799.067 421.372C799.067 421.372 601.586 554.689 546.136 552.163C481.234 549.206 388.579 517.788 333.07 491.261C273.739 462.907 254.027 447.764 254.027 447.764C254.027 447.764 254.19 532.753 288.702 596.266C316.765 647.913 375.42 708.623 411.523 747.445C492.023 834.009 575.688 814.587 575.688 814.587Z" opacity="1" vectornator:layerName="Curve 9"/><path fill="#fff" fill-rule="nonzero" stroke="none" d="M546.136 646.833C546.136 646.833 623.876 629.974 677.646 599.735C735.6 567.142 775.786 524.14 781.631 494.629C787.832 463.322 781.631 453.838 781.631 453.838C781.631 453.838 748.77 479.408 748.77 479.408C748.77 479.408 601.586 575.643 546.136 573.117C481.234 570.16 388.579 538.742 333.07 512.215C273.739 483.861 278.42 489.329 278.42 489.329C278.42 489.329 263.606 512.107 297.797 548.849C342.57 596.961 356.885 597.064 411.523 618.911C486.001 648.692 546.136 646.833 546.136 646.833Z" opacity="1" vectornator:layerName="Curve 8"/></g></svg>